PathFileType	3	(X/Y/Z)	F:\ViconData\AntennenMessung\Messung1\Session1\ID13.trc
DataRate	CameraRate	NumFrames	NumMarkers	Units	OrigDataRate	OrigDataStartFrame	OrigNumFrames
120.0	120.0	6	70	mm	120.0	229	912	
Frame#	Time	Ashort			Along			Atop			A4			Bshort			Blong			Btop			B4			Cshort			Clong			Ctop			C4			Dshort			Dlong			Dtop			D4			Eshort			Elong			Etop			E4			Fshort			Flong			Ftop			F4			Gshort			Glong			Gtop			G4			Hshort			Hlong			Htop			H4			I1			I2			I3			I4			I5			WandAshort			WandAlong			WandAtop			WandA4			WandA15			WandBshort			WandB4			WandB5			WandBtop			WandBlong			WandCshort			WandClong			WandCtop			WandC4			WandC5			Acenter			Aantenna			Bcenter			Bantenna			Ccenter			Cantenna			Dcenter			Dantenna			Ecenter			Eantenna			Fcenter			Fantenna			Gcenter			Gantenna			Hcenter			Hantenna			Icenter			Iantenna			
		X1	Y1	Z1	X2	Y2	Z2	X3	Y3	Z3	X4	Y4	Z4	X5	Y5	Z5	X6	Y6	Z6	X7	Y7	Z7	X8	Y8	Z8	X9	Y9	Z9	X10	Y10	Z10	X11	Y11	Z11	X12	Y12	Z12	X13	Y13	Z13	X14	Y14	Z14	X15	Y15	Z15	X16	Y16	Z16	X17	Y17	Z17	X18	Y18	Z18	X19	Y19	Z19	X20	Y20	Z20	X21	Y21	Z21	X22	Y22	Z22	X23	Y23	Z23	X24	Y24	Z24	X25	Y25	Z25	X26	Y26	Z26	X27	Y27	Z27	X28	Y28	Z28	X29	Y29	Z29	X30	Y30	Z30	X31	Y31	Z31	X32	Y32	Z32	X33	Y33	Z33	X34	Y34	Z34	X35	Y35	Z35	X36	Y36	Z36	X37	Y37	Z37	X38	Y38	Z38	X39	Y39	Z39	X40	Y40	Z40	X41	Y41	Z41	X42	Y42	Z42	X43	Y43	Z43	X44	Y44	Z44	X45	Y45	Z45	X46	Y46	Z46	X47	Y47	Z47	X48	Y48	Z48	X49	Y49	Z49	X50	Y50	Z50	X51	Y51	Z51	X52	Y52	Z52	X53	Y53	Z53	X54	Y54	Z54	X55	Y55	Z55	X56	Y56	Z56	X57	Y57	Z57	X58	Y58	Z58	X59	Y59	Z59	X60	Y60	Z60	X61	Y61	Z61	X62	Y62	Z62	X63	Y63	Z63	X64	Y64	Z64	X65	Y65	Z65	X66	Y66	Z66	X67	Y67	Z67	X68	Y68	Z68	X69	Y69	Z69	X70	Y70	Z70	
229	1.9	-1038.2936	214.79002	-1644.1232	-1109.3678	204.17223	-1599.3888	-1063.6997	172.9455	-1625.8832	-1054.147	262.26941	-1634.9214	-1352.698	235.75868	1003.6252	-1281.4618	227.38956	1052.2164	-1322.7266	194.14137	1020.7737	-1284.6267	287.86545	1052.8048	813.97296	187.49818	1209.5	892.5401	178.62001	1179.0159	844.46387	145.52051	1198.2012	861.08405	292.36163	1167.6525	1115.8439	209.98625	-1401.7958	1056.3414	194.02026	-1460.1796	1095.132	162.32401	-1423.8724	1069.7787	238.80257	-1425.894	-1204.5308	1686.0104	-1563.2489	-1129.1132	1688.3086	-1606.0575	-1173.2	1724.4081	-1581.835	-1134.0391	1581.0531	-1603.8679	-1239.5469	1699.0081	1119.3903	-1309.2307	1698.5844	1071.8105	-1270.4684	1736.4135	1096.8947	-1245.7649	1593.0756	1110.7091	988.82361	1664.2399	1162.213	957.48834	1700.3118	1183.8601	922.57074	1662.2163	1214.9048	939.8584	1659.4436	1159.8855	999.11353	1668.4496	-1579.4376	1058.9362	1670.1598	-1518.7371	1025.047	1708.0278	-1551.1906	1059.2998	1672.1279	-1585.4717	-187.7	1177.2919	-236.61868	-194.22543	1179.1287	-152.42801	-191.53793	1215.0872	-199.68146	-222.4115	1175.6401	-202.09401	-142.51849	1180.4603	-196.06241																																														-1068.7051	210.24684	-1624.9822	-1073.8904	248.88933	-1624.0486	-1321.2203	232.06053	1025.0966	-1319.6823	270.77942	1029.5105	848.02942	183.64975	1196.286	851.65601	222.43187	1194.338	1088.7335	202.7119	-1428.3962	1082.6682	240.99794	-1432.6846	-1171.9935	1687.0018	-1581.7177	-1170.7363	1648.0222	-1581.5955	-1270.9562	1698.817	1097.944	-1271.462	1659.8354	1099.0322	953.02435	1705.4504	1186.9438	972.87872	1733.6373	1168.7145	1026.5597	1669.2343	-1551.5884	1028.0795	1630.2659	-1551.9883	-190.63087	1178.1168	-198.80461	-189.67459	1139.1395	-197.88019
230	1.9083333	-1038.2764	214.76485	-1644.1025	-1109.3606	204.13293	-1599.3962	-1063.6742	172.93246	-1625.9071	-1054.1448	262.22339	-1634.8485	-1352.8383	235.43689	1003.6085	-1281.462	227.43687	1052.2407	-1322.6649	194.19647	1020.7303	-1284.5659	287.83749	1052.7448	813.96381	187.57297	1209.4929	892.9245	179.04915	1178.5215	844.41351	145.61081	1198.245	861.11792	292.44656	1168.3925	1115.8326	209.96619	-1401.8105	1056.2518	194.03403	-1460.1775	1095.1721	162.41556	-1423.8527	1069.7917	238.76936	-1425.8844	-1204.5398	1686.0092	-1563.2485	-1129.1519	1688.4388	-1606.5767	-1173.1609	1724.4646	-1581.9111	-1134.0436	1581.0497	-1603.8488	-1239.3239	1698.6858	1119.2927	-1309.3688	1698.7728	1071.8804	-1270.4696	1736.4047	1096.8782	-1245.7838	1593.0222	1110.6891	988.836	1664.238	1162.2452	957.3139	1700.5206	1183.8108	922.6543	1662.0912	1214.9454	939.81226	1659.4315	1159.8695	999.11707	1668.4545	-1579.4291	1058.9158	1670.126	-1518.7268	1025.0469	1708.0447	-1551.184	1059.3049	1672.1261	-1585.4581	-187.6978	1177.2964	-236.61035	-194.14629	1178.9882	-152.50705	-191.53987	1215.0785	-199.67932	-222.46028	1175.7119	-202.10393	-142.54105	1180.457	-196.0519																																														-1068.6719	210.21863	-1624.9861	-1073.8513	248.86139	-1624.0316	-1321.3773	231.91064	1025.0444	-1320.0551	270.63568	1029.4741	847.76154	183.9245	1196.2361	851.15192	222.72354	1194.2018	1088.77	202.72951	-1428.3218	1082.6897	241.01805	-1432.5663	-1171.9833	1687.0583	-1581.9597	-1170.7561	1648.0778	-1582.0106	-1271.1201	1698.7252	1097.7703	-1271.7932	1659.7418	1098.6931	953.11499	1705.3535	1186.6835	972.91937	1733.481	1168.3086	1026.5428	1669.2209	-1551.5886	1028.0447	1630.252	-1551.995	-190.5921	1178.0558	-198.86191	-189.59428	1139.078	-198.00136
231	1.9166667	-1038.2292	214.5536	-1644.0999	-1109.3662	204.03697	-1599.3842	-1063.6749	172.8864	-1625.8898	-1054.1498	262.27042	-1634.912	-1352.6816	235.51022	1003.5579	-1281.3838	227.52386	1052.1644	-1322.6931	194.19093	1020.7388	-1284.4893	287.87775	1052.6841	814.51404	187.07666	1209.7015	892.55817	178.50781	1179.0942	844.4837	145.60764	1198.1079	860.97089	292.34341	1168.3357	1115.8412	209.98128	-1401.7975	1056.2513	194.06685	-1460.1653	1095.1962	162.44705	-1423.8569	1069.7644	238.79665	-1425.9156	-1204.5197	1685.9984	-1563.243	-1129.1238	1688.3293	-1606.0739	-1173.1754	1724.4769	-1581.9054	-1134.0212	1581.0562	-1603.9064	-1239.3337	1698.6904	1119.2928	-1309.2225	1698.5402	1071.7969	-1270.4646	1736.3877	1096.8777	-1244.9402	1594.1122	1106.1956	988.81738	1664.2234	1162.2297	957.45581	1700.3837	1183.7898	922.09082	1662.2513	1214.8341	939.79669	1659.4283	1159.8844	999.12103	1668.4412	-1579.4098	1058.7861	1669.955	-1518.7534	1025.0458	1708.0364	-1551.1804	1059.3135	1672.1305	-1585.4659	-187.69566	1177.2992	-236.61583	-194.14554	1178.9973	-152.49335	-191.59349	1215.1851	-199.65814	-222.40834	1175.6418	-202.08582	-142.53288	1180.455	-196.0636																																														-1068.6124	210.06184	-1625.0013	-1073.7457	248.71152	-1624.0776	-1321.3208	231.99738	1024.9377	-1319.9147	270.73383	1029.24	848.02539	183.39728	1196.5591	851.66144	222.19482	1194.9689	1088.7833	202.75507	-1428.3003	1082.6918	241.04446	-1432.5211	-1171.9319	1687.0059	-1581.7552	-1170.6382	1648.0277	-1581.5994	-1270.9943	1698.6223	1097.7765	-1271.5411	1659.6372	1098.7045	952.90906	1705.6259	1186.9155	972.91162	1733.7781	1168.7952	1026.4679	1669.1349	-1551.6084	1027.8927	1630.1633	-1552.0374	-190.59265	1178.0619	-198.832	-189.54184	1139.0857	-197.96466
232	1.925	-1038.3169	214.78569	-1644.1207	-1109.3656	204.10774	-1599.3627	-1063.6396	172.85965	-1625.9327	-1054.1443	262.27087	-1634.9011	-1352.7363	235.4691	1003.653	-1281.4336	227.38445	1052.1898	-1322.731	194.17274	1020.7616	-1284.5972	287.85541	1052.7336	814.008	187.52194	1209.433	892.56317	178.52458	1179.0598	844.43848	145.59808	1198.2808	861.10669	292.47015	1168.3196	1115.8274	209.96825	-1401.7966	1056.2312	194.01935	-1460.1484	1095.1309	162.25848	-1423.7761	1069.7477	238.82091	-1425.9354	-1204.5302	1686.0004	-1563.2476	-1129.1072	1688.3306	-1606.0735	-1173.173	1724.4624	-1581.9016	-1134.0333	1581.0447	-1603.8839	-1239.5541	1699.0118	1119.3932	-1309.2446	1698.5815	1071.8066	-1270.5233	1736.4792	1096.9142	-1245.75	1593.0267	1110.6967	988.79578	1664.196	1162.2159	957.30994	1700.5381	1183.7507	922.18042	1662.2578	1214.8865	939.82611	1659.3842	1159.8683	999.11536	1668.4606	-1579.4398	1058.9436	1670.1481	-1518.7402	1025.0485	1708.0354	-1551.1826	1059.3026	1672.1675	-1585.5735	-187.67807	1177.2954	-236.61201	-194.24638	1178.9365	-152.61826	-191.58498	1215.1906	-199.65596	-222.44093	1175.6926	-202.09209	-142.52057	1180.4517	-196.05704																																														-1068.668	210.2242	-1625.0005	-1073.8679	248.86397	-1624.0365	-1321.3497	231.91032	1025.0182	-1319.9321	270.63895	1029.3866	848.02118	183.62621	1196.2817	851.67419	222.40121	1194.2435	1088.745	202.72055	-1428.3135	1082.7023	241.00958	-1432.6071	-1171.9332	1687.0073	-1581.7563	-1170.6431	1648.0289	-1581.6051	-1270.9852	1698.8177	1097.9312	-1271.4634	1659.8348	1098.9839	952.93842	1705.5837	1186.7406	972.88867	1733.6857	1168.4849	1026.5608	1669.2346	-1551.5945	1028.0797	1630.2665	-1552.0084	-190.63063	1178.0331	-198.85539	-189.62953	1139.0551	-198.01558
233	1.9333333	-1038.264	214.64902	-1644.1405	-1109.3846	204.12022	-1599.3938	-1063.6266	172.90854	-1625.9474	-1054.1705	262.2424	-1634.8832	-1352.6842	235.47005	1003.7328	-1281.3853	227.43909	1052.1412	-1322.7753	194.11551	1020.7415	-1284.6085	287.83929	1052.7709	814.04126	187.50002	1209.5226	892.53552	178.46893	1179.0454	844.48993	145.52216	1198.291	861.12695	292.54434	1168.2969	1115.8475	209.9747	-1401.7854	1056.2604	194.0746	-1460.1786	1095.1276	162.39449	-1423.8292	1069.7578	238.7814	-1425.8781	-1204.6073	1686.076	-1563.103	-1129.1207	1688.3245	-1606.0616	-1173.1711	1724.4795	-1581.9103	-1134.0366	1581.0524	-1603.8844	-1239.5895	1699.0371	1119.4026	-1309.2196	1698.5623	1071.8149	-1270.5569	1736.5149	1096.924	-1244.9229	1594.0236	1106.2477	988.85406	1664.2524	1162.2125	957.23889	1700.5675	1183.8069	922.66797	1662.1719	1214.9885	939.83813	1659.413	1159.8247	999.13147	1668.4459	-1579.4261	1058.9271	1670.1281	-1518.7252	1025.0527	1708.0449	-1551.1768	1059.2985	1672.1676	-1585.5714	-187.6925	1177.3082	-236.61424	-194.14717	1178.9928	-152.51642	-191.5262	1215.0876	-199.66858	-222.41174	1175.6508	-202.08685	-142.51624	1180.4656	-196.06041																																														-1068.5853	210.16022	-1625.0634	-1073.7299	248.80853	-1624.1462	-1321.3912	231.94527	1024.9791	-1319.9742	270.67728	1029.3177	848.09576	183.58189	1196.3002	851.76935	222.35547	1194.272	1088.7654	202.74815	-1428.3248	1082.728	241.04111	-1432.5909	-1171.9347	1687.0492	-1581.6967	-1170.6471	1648.0709	-1581.4742	-1270.9939	1698.8229	1097.9395	-1271.4459	1659.8396	1098.9899	953.01569	1705.4185	1186.6915	972.76379	1733.5601	1168.278	1026.5583	1669.2174	-1551.584	1028.0695	1630.2489	-1551.9927	-190.59058	1178.0645	-198.85515	-189.60555	1139.0864	-197.99878
234	1.9416667	-1038.3073	214.77956	-1644.1055	-1109.4005	204.08	-1599.384	-1063.6344	172.86176	-1625.9493	-1054.1622	262.24756	-1634.8831	-1352.8264	235.4915	1003.6301	-1281.422	227.40517	1052.1298	-1322.7881	194.06682	1020.7862	-1284.578	287.84955	1052.7006	814.02209	187.58969	1209.4468	892.53284	178.46118	1179.1586	844.46588	145.53647	1198.2426	861.19244	292.384	1168.1158	1115.8368	209.96466	-1401.7843	1056.4147	194.11031	-1460.2603	1095.2062	162.48392	-1423.855	1069.7871	238.83263	-1425.881	-1204.5249	1686.0115	-1563.2626	-1129.1288	1688.3358	-1606.0808	-1173.2019	1724.3983	-1581.8317	-1134.0306	1581.0455	-1603.8795	-1239.5852	1699.0536	1119.4138	-1309.2362	1698.5935	1071.8191	-1270.4888	1736.3805	1096.8813	-1245.7629	1593.0267	1110.6968	988.81903	1664.2401	1162.2328	957.49408	1700.3942	1183.8093	922.59546	1662.0421	1214.9229	939.82373	1659.451	1159.8542	999.13104	1668.4384	-1579.42	1058.9259	1670.1376	-1518.7339	1025.0513	1708.04	-1551.1847	1059.3074	1672.1759	-1585.5702	-187.68784	1177.3011	-236.608	-194.22069	1179.1154	-152.43687	-191.54504	1215.0802	-199.67319	-222.42139	1175.665	-202.10007	-142.52122	1180.4568	-196.0437																																														-1068.6641	210.21083	-1625.0093	-1073.8676	248.8499	-1624.0367	-1321.3629	231.92834	1025.0007	-1319.9052	270.66187	1029.3123	848.13904	183.62286	1196.285	851.87811	222.39204	1194.2925	1088.8617	202.76746	-1428.3297	1082.8304	241.06273	-1432.5839	-1171.9952	1687.0143	-1581.7363	-1170.7372	1648.0345	-1581.637	-1270.9786	1698.8462	1097.9615	-1271.4877	1659.8656	1099.0833	953.19501	1705.3557	1186.7703	973.07104	1733.4902	1168.4839	1026.5588	1669.2177	-1551.5831	1028.0724	1630.2491	-1551.9833	-190.62189	1178.116	-198.80482	-189.64847	1139.1388	-197.88916
